/* XPM */
static char *result[] = {
/* columns rows colors chars-per-pixel */
"32 32 195 2 ",
"   c #060202",
".  c #0C0603",
"X  c #0E0804",
"o  c #0B0609",
"O  c #1F0000",
"+  c #130C06",
"@  c #170E08",
"#  c #180D0C",
"$  c #1D1209",
"%  c #151212",
"&  c #1D1617",
"*  c #250000",
"=  c #2C0000",
"-  c #230F0E",
";  c #340100",
":  c #390100",
">  c #3B0B02",
",  c #300A00",
"<  c #29170B",
"1  c #2D1A0C",
"2  c #331E0D",
"3  c #3E130C",
"4  c #2A1715",
"5  c #361918",
"6  c #35200F",
"7  c #39210F",
"8  c #372211",
"9  c #3C2411",
"0  c #3F2813",
"q  c #312B2D",
"w  c #2A2623",
"e  c #400804",
"r  c #45160F",
"t  c #49140A",
"y  c #55170A",
"u  c #431711",
"i  c #461B15",
"p  c #4A1F1A",
"a  c #461E18",
"s  c #452B15",
"d  c #4A2E17",
"f  c #4B231D",
"g  c #482F19",
"h  c #442C18",
"j  c #562419",
"k  c #473115",
"l  c #4B3317",
"z  c #4D3318",
"x  c #523619",
"c  c #543A1A",
"v  c #5A3D1B",
"b  c #613E1E",
"n  c #7A351D",
"m  c #4C2520",
"M  c #4C2923",
"N  c #5A2F2B",
"B  c #593737",
"V  c #673F20",
"C  c #7A3423",
"Z  c #7C3925",
"A  c #753828",
"S  c #632A33",
"D  c #653634",
"F  c #7C3F30",
"G  c #5E401E",
"H  c #65401F",
"J  c #674120",
"K  c #6B4421",
"L  c #6F4A21",
"P  c #714723",
"I  c #734A24",
"U  c #7A4D26",
"Y  c #775024",
"T  c #7C5326",
"R  c #4C4748",
"E  c #694B44",
"W  c #843B2A",
"Q  c #803824",
"!  c #8B422E",
"~  c #815627",
"^  c #835827",
"/  c #815829",
"(  c #885B29",
")  c #8A483B",
"_  c #964B3B",
"`  c #893E45",
"'  c #94454A",
"]  c #935545",
"[  c #985444",
"{  c #A75E4B",
"}  c #A75E47",
"|  c #9E6051",
" . c #AA644A",
".. c #B4664E",
"X. c #B5694E",
"o. c #B86A4E",
"O. c #A56750",
"+. c #B36751",
"@. c #B66A51",
"#. c #BA6D54",
"$. c #B26E5A",
"%. c #BA7155",
"&. c #BC735A",
"*. c #BF785F",
"=. c #B07657",
"-. c #836F6C",
";. c #8C6E69",
":. c #88706F",
">. c #84736F",
",. c #9A726B",
"<. c #8C7978",
"1. c #947D7D",
"2. c #967B78",
"3. c #BD7B64",
"4. c #C16F5C",
"5. c #C3765D",
"6. c #C1785F",
"7. c #EB5769",
"8. c #C47B63",
"9. c #C47D69",
"0. c #C67A68",
"q. c #EC6367",
"w. c #F4636B",
"e. c #C78163",
"r. c #C5806D",
"t. c #CB846C",
"y. c #D3856B",
"u. c #D28B6E",
"i. c #C78473",
"p. c #C78C74",
"a. c #CD8A72",
"s. c #D38774",
"d. c #D68E74",
"f. c #D98D74",
"g. c #D48D79",
"h. c #D3877A",
"j. c #DA937A",
"k. c #D49579",
"l. c #E2997E",
"z. c #8A8788",
"x. c #9D9D9B",
"c. c #9A8884",
"v. c #A29090",
"b. c #A6A29D",
"n. c #A4A5A4",
"m. c #ACACAD",
"M. c #A6AAA7",
"N. c #AFB3B2",
"B. c #A6B0B2",
"V. c #B4B5B4",
"C. c #B5B4B8",
"Z. c #BBBBBC",
"A. c #B9B8B7",
"S. c #DC9980",
"D. c #DB9D8A",
"F. c #D19583",
"G. c #E69E8A",
"H. c #DCA18A",
"J. c #DCA999",
"K. c #D2A694",
"L. c #D2B29A",
"P. c #E2AF98",
"I. c #E5A58C",
"U. c #DDABA5",
"Y. c #E6BBA7",
"T. c #DDC1B2",
"R. c #E7C8BA",
"E. c #FFCBBD",
"W. c #E5D0BF",
"Q. c #BFBEC2",
"!. c #F5BACC",
"~. c gray81",
"^. c #C2C3C3",
"/. c #D6D6D6",
"(. c #E1C9C5",
"). c #FFCCCD",
"_. c #F3C8CA",
"`. c #EFD7C8",
"'. c #EDD8CA",
"]. c #F5D7CB",
"[. c #FFCED4",
"{. c #FECDDB",
"}. c #F5CBD2",
"|. c #FED2D5",
" X c #FDD3DB",
".X c #FBDCDD",
"XX c #FFECDD",
"oX c #FBE6D8",
"OX c #FED7E1",
"+X c #FFDAE3",
"@X c #FBE9E7",
"#X c #FCF1EB",
"$X c #FDFAF3",
"%X c #FEFEFE",
"&X c #E3E5E8",
/* pixels */
"K K h g z z c c c c c c c c c c g g c c c c c c c c c c x x 2 9 ",
"J K 9 0 z z c z c c c c x z l z 0 0 z z c c c c l l l l g x 1 2 ",
"J J K L g d g x 1 8 6 4 z h K K K K J P < 2 2 < P K J K z c g d ",
"P K J K s s g g 1 6 1 4 c l P K J K J P < 2 2 < I K b K l z g z ",
"s 9 H b K K K K c c L Y < 2 l s v c c c b b b H s 0 K H H I < 2 ",
"x d ~ I K P P I G G P Y 2 8 v x J J H H B f b K B m I K K U 2 s ",
"# + . . 2 1 1 2 E N f a u ,.D M M 5 7 B Y.= . + ; Y.N m m 2 + + ",
"# X . . 2 2 < -.] 3.(.&X@XD O.*.&.i.j = oX> p f * XX; 3.0.m . . ",
"v c ( ( x x :.] d.d.k.#X%XB %.E.OXG.8.i.k.t.r.9.r.H.= @Xd.; U I ",
"c l I I h :.[ u.y.t.y.k.F.t 9.I.D.g.j.f.d.g.P.D.d.d.i.y G.O P H ",
"c l Y I 1.n &.`.%X%XK.y.e.8.y :  .s.j.d.d.g.'.`.h.u.j.j r K l l ",
"c l ~ 2.* _ ].%X%X%X%XJ.u.e.&.$.&.t.S.j.u.p.oX$XW.G.G.; ; K x c ",
"g s 1.; Z R.%X%X%X%X%XJ.f.t.5.%.=.j.y * T.@X$X%X%X= ; oXR.O s s ",
"x x 2.; W (.%X%X%X%XL.a.d.d.6.%.&.q.7.[.+XOX.X{. X[.q.w.#X$X= d ",
"@ <.C A W 9.'.%X%XU.a.d.d.f.8.X.J..X X X}.{.{.{.[.|. X{. X.X; + ",
"+ 2.W A ! y.p.h.p.a.d.f.d.d.*. .]. X|.|.[.{.{.{.[.).[. X[.|.; + ",
"c.C Z ; ! r.d.d.f.g.d.d.d.g.5.} }..X XD _.{.{.{.[.{. XS +X).= 9 ",
"v.; > > ! 5.d.f.d.d.d.d.g.y.#.o.) !. X X X{.{.{.{.{.{.+X).* 2 9 ",
"x l l <.F #.&.e.d.d.d.j.f.8.#.@.o.` }. X{.{.|.{.{.[.[.[.* v . @ ",
"x k l l ;.Z #.&.&.8.8.8.6.#.&.o.....' ` ' ' ; ; ; ; ; = l c . @ ",
"Y Y H I :.Z ..+...@.X.o.#.#.+.......+.#. .@.t ; l l x l K I 2 9 ",
"T ^ K T g -.Z +.@... .{ { { { { ......$.i , 4 . c v c c I U 2 9 ",
"X . X   ^.B.E F ] ] i r a u u 3 )  .] = A.& o b.X X 7 2 1 2 + @ ",
"X . X . ~.n.V.R @ 4   z.C.C.C.Q.w - 4   b.V.V.m.    2 1 < 2 . . ",
"/ / P I K /.n.C.R % % z.B.n.M.n.Z.q 4 % x.b.m.x ( ^ K K T T ^ ^ ",
"Y Y J J J H ~.V.Q.Q.B.B.n.n.n.n.n.m.V.^.A.m.l l Y I J H T I L L ",
"x l k s K H b K /.L.V.V.C.V.V.V.V.V.Z.b b H s s H H l l l k J H ",
"c x l h K J K K s l s s l c $ $ g 9 P H H I s s I K l c x l K K ",
"x d d l z l l l x l L K H I 6 1 I K J K s s c c l l c l l c l l ",
"v x x x c c G G c c I K P T 2 6 T P P U l l c c c c v v v v v v ",
"+ + + X 7 7 . . 7 2 1 7 . X @ @ . . X   7 6 6 6 6 7 . + X + + X ",
"- $ $ + s 7 @ @ 0 7 8 9 + $ $ $ $ $ $ $ 0 6 6 7 7 7 @ $ $ $ $ $ "
};
