/* XPM */
static char *result[] = {
/* columns rows colors chars-per-pixel */
"32 32 175 2 ",
"   c #0D0E0D",
".  c #001D00",
"X  c #082F08",
"o  c #003C00",
"O  c #153415",
"+  c #153915",
"@  c #1D341D",
"#  c #1C3D1C",
"$  c #272027",
"%  c gray18",
"&  c #233423",
"*  c #243C24",
"=  c #2A3B2A",
"-  c #333F33",
";  c #3A373A",
":  c #3A3B3A",
">  c #054205",
",  c #024D02",
"<  c #0C480C",
"1  c #164316",
"2  c #154B15",
"3  c #1B451B",
"4  c #1A4C1A",
"5  c #135213",
"6  c #165916",
"7  c #1D531D",
"8  c #1C5A1C",
"9  c #156615",
"0  c #176B17",
"q  c #1B6C1B",
"w  c #167816",
"e  c #1F701F",
"r  c #254325",
"t  c #234B23",
"y  c #2B442B",
"u  c #2B4C2B",
"i  c #225322",
"p  c #255C25",
"a  c #2B542B",
"s  c #2A5B2A",
"d  c #354235",
"f  c #334D33",
"g  c #394539",
"h  c #394939",
"j  c #345534",
"k  c #335C33",
"l  c #395439",
"z  c #395C39",
"x  c #246424",
"c  c #276A27",
"v  c #2B642B",
"b  c #2C6B2C",
"n  c #217021",
"m  c #2C742C",
"M  c #2E7C2E",
"N  c #346434",
"B  c #356B35",
"V  c #3A633A",
"C  c #3C6C3C",
"Z  c #337333",
"A  c #347B34",
"S  c #3D733D",
"D  c #3D7B3D",
"F  c #433D43",
"G  c #454445",
"H  c #4B444B",
"J  c #4A494A",
"K  c #445444",
"L  c #445B44",
"P  c #524452",
"I  c #534C53",
"U  c #5D465D",
"Y  c #5C4C5C",
"T  c #545354",
"R  c #575857",
"E  c #5D535D",
"W  c #5E5E5E",
"Q  c #456445",
"!  c #446B44",
"~  c #467246",
"^  c #487A48",
"/  c #507750",
"(  c #625562",
")  c #625D62",
"_  c #6A5A6A",
"`  c #626262",
"'  c #676867",
"]  c #6A646A",
"[  c #6C6B6C",
"{  c #6F706F",
"}  c #726572",
"|  c #736C73",
" . c #786078",
".. c #7B6C7B",
"X. c #747474",
"o. c #7C747C",
"O. c #7C7C7C",
"+. c #1B841B",
"@. c #278827",
"#. c #2C842C",
"$. c #2C8B2C",
"%. c #2D932D",
"&. c #308230",
"*. c #348C34",
"=. c #359435",
"-. c #369B36",
";. c #3C923C",
":. c #3D983D",
">. c #428442",
",. c #458F45",
"<. c #459545",
"1. c #469C46",
"2. c #489E48",
"3. c #48A148",
"4. c #52A352",
"5. c #7F807F",
"6. c #817581",
"7. c #847B84",
"8. c #8B7E8B",
"9. c #947694",
"0. c #848384",
"q. c #8C848C",
"w. c #8C8B8C",
"e. c #8F908F",
"r. c #918591",
"t. c #938B93",
"y. c #9A869A",
"u. c #9B8D9B",
"i. c #949494",
"p. c #979897",
"a. c #9B959B",
"s. c #9C9C9C",
"d. c #9EA09E",
"f. c #A495A4",
"g. c #A39BA3",
"h. c #A89AA8",
"j. c #B09CB0",
"k. c #A3A2A3",
"l. c #ADA4AD",
"z. c #ABABAB",
"x. c #AFB0AF",
"c. c #B3A3B3",
"v. c #B4AAB4",
"b. c #BBACBB",
"n. c #B4B4B4",
"m. c #B7B8B7",
"M. c #BEB4BE",
"N. c #BCBCBC",
"B. c #C4B4C4",
"V. c #C4BBC4",
"C. c #C9B3C9",
"Z. c #CCBCCC",
"A. c #D2BCD2",
"S. c #C4C2C4",
"D. c #CCC3CC",
"F. c #CBCACB",
"G. c #D1C4D1",
"H. c #D5CBD5",
"J. c #D9C7D9",
"K. c #DDCCDD",
"L. c #DDD1DD",
"P. c #D8D8D8",
"I. c #DFE0DF",
"U. c #E4CDE4",
"Y. c #E4D4E4",
"T. c #E6DCE6",
"R. c #ECD4EC",
"E. c #E9DAE9",
"W. c #E1E4E1",
"Q. c #E7E8E7",
"!. c #EBE2EB",
"~. c #E9EAE9",
"^. c #F3EBF3",
"/. c #F8E9F8",
"(. c #FCF0FC",
/* pixels */
"N.n.m.n.m.m.z.n.s.s.w.a.~ / / ~ 6.[ S.n.m.n.m.N.w.p.X.' F.N.p.s.",
"n.z.z.z.m.m.k.z.s.k.0.u.a z j a ..E N.n.n.n.n.N.X.0.] ) S.S.0.w.",
"n.z.z.m.` ' 0.0.: H N j 1.<.<.2.k s 0.O.0.0.O.O.i.g.3 u O.] s.s.",
"D.V.n.S.` ' t.p.F P k f %.$.<.2.k p u.w.0.w.O.O.g.l.* u 8.X.k.s.",
"V 4 0.O.7.w.r d B z 1.=.C.Z.c D P I y & i.w.O.w.* y B N z s w.7.",
"! a u.w.w.a.= d i 3 3.%.B.V.9 M P T d & l.a.0.a.r h a a 7 < f.t.",
"^ S u j y y C i J.K.a s a.i.0.t.J T N B y r T I N i Z.v.S.K.2 s ",
"b x 3 3 d = V 7 S.D.6 6 g.p.0.i.P Y z z * # Y U B 7 V.z.m.D.7 N ",
"Z.V.V.F.) ..N i M.n.0.y.0.w.G I N k <.*.b.B.$.;.l a 7.X.z.z.) | ",
"N.m.n.S.T ] N i G.Z.5.0.0.e.I ( k l @.w h.c.&.,.a 7 t.O.V.F.) | ",
"O.[ 0.0.O.t.k N Z x t.w.O.t.r d 1.@.K.L.[ 7.A A ..| ` [ * y f f ",
"0.{ w.0.0.y.k z S b f.s.0.a.r - 2.$.R.E.] 6.A A } ' ` ] = g u u ",
"w.5.O.q.m Z z V N C y t I J B C z z m 0 v.v.b Z 7.X.0.r.m A } ] ",
"w.O.0.q.A D V V N V @ + Y Y B V V N >.e M.V.q q o.X.w.y.m D I T ",
"w.5.5.w.= d V l 1.$.A.J.i N z z V V u I.; ; a.t.0.w.g P B 4 T.F.",
"w.0.w.g.= h 2 + <.#.A.K.i V 4 3 i 8 l t Y H g.a.q.p.J E 5 o L.m.",
"w.w.& & C i H.U.*.1.c c C x J.V.n.A.m ^ N B a u u u H % ^.L.k.z.",
"0.0.@ = 7 o D.Z.=.1.S ^ 7 , H.N.s.v.c S i s l z u a $   ~.H.n.n.",
"s.i.[ ) H.V.x.V.b D h O H.J.R T S.G.m M j.j.s N ..) Q.W.` X.X.X.",
"s.p._ ( S.n.m.G.e A f # N.m.W W F.H.m M a.s.s v ..E I.P.[ 5.5.0.",
"' ( =.%...| X.X.q.t.J F m.n.p.s.X.6.Z Z r.w.P Y v c E G z.k.0.0.",
"o. .:.-.9.7.0.5.0.w.G : F.N.w.s.O.q.n q f.k.H I k a ..] n.l.w.w.",
"C N z l =.$.7.O.[ O.J J O.X.0.O.p.p.0.u.# r N j 3.1.a N a p H J ",
"s 4 4 3 1.=.y.t.7.0.I J a.q.0.O.g.g.r.f.X @ t 3 2.1.t s V N Y T ",
"D.V.V.Y.@ d y r y y f u N 8 q.q.1 t y O H.D.l.B.v b u.u.s V N N ",
"n.z.m.F.& h + + d - + O C s a.a.u l O . S.n.s.v.9 q r.w.2 s N N ",
"m.S.' 6.B c L.Y.;.%.K.E.i N H H B 7 (.~.p.k.X.X.f.f.5.5.a.h.H I ",
"S.F.X.7.b x V.Z.@.+.D.H.2 s Y I B 7 /.!.d.v.X.O.p.p.X.O.p.s.H T ",
"O.' w.a.u * k.k.8.y.[ | r.u.p N V V 1 > 0.X.p.i.0.0.p.k.: J u f ",
"0.X.w.p.3 3 M.n.w.i.0.0.w.u.s V z z a p t.0.a.f.p.i.g.l.H ) y u ",
"0.O.X.X.7.r.3 4 & * * * r * V j 3.-.y.i.R ) 7 s r t t t j r 6.X.",
"i.0.0.0.5.q.Q ! K K K K L L ~ ! 4.1.y.i.[ o.C ~ Q Q Q Q L z 7.X."
};
