/* XPM */
static char *result[] = {
/* columns rows colors chars-per-pixel */
"32 32 43 1 ",
"  c #070302",
". c #0C0603",
"X c #0E0804",
"o c #130C06",
"O c #180E07",
"+ c #170E08",
"@ c #1D1209",
"# c #29170B",
"$ c #2D1A0C",
"% c #331D0D",
"& c #35200F",
"* c #39210F",
"= c #362110",
"- c #3C2411",
"; c #3F2813",
": c #452B15",
"> c #4A2E17",
", c #442C18",
"< c #482F19",
"1 c #463115",
"2 c #4B3317",
"3 c #4D3418",
"4 c #523619",
"5 c #543A1A",
"6 c #5B3D1B",
"7 c #613E1E",
"8 c #663F20",
"9 c #5E401D",
"0 c #65401F",
"q c #664120",
"w c #6B4321",
"e c #6F4A21",
"r c #704623",
"t c #734B23",
"y c #794D26",
"u c #775024",
"i c #7A5325",
"p c #7E5128",
"a c #815627",
"s c #835927",
"d c #825728",
"f c #8A5D2A",
"g c #8D602B",
/* pixels */
"ww,<335545555345<<555555535534=-",
"qw-;335355553523;;3254553323<3$&",
"qqwt<><4%&&$3<rwwwwr#&&#rwqw35<<",
"rwqw::<<$&$$5>rwqwqr#%%#twqw13<3",
"<-r7wwww44ty#%>:5555866q::070t#%",
"4>ytwrrt56rt%*63ww68688w44yrry%:",
"+oX %$$%..%%oOooX.&$%%..o.%%$%oo",
"+X. %%$%  %% .OO. %##%..o.%%%* .",
"75ff33sigiiisf%%faiiisty57662>yt",
"42tt::i0uuuets$$suuuuy7w1224::r0",
"52ttui6w1100->=&::2222>:r0r00r22",
"52iutyww12e0,2=&>:2222>:r70wrr25",
"2,--3>21w000wt$$t0w07r35>3::::::",
"43<<9654ttwewy%%artyty45564456>>",
"+.-*..-%$$$$%%oO.XXXX %%%%Xooooo",
"o %%  %$%%%%$%  ..XX..%$%% XXXOO",
"ytiuaart5654sissaaaassuiiissra%-",
"00iyut7r1222yetuttututtuttuu7t%-",
"532:770800r0701122>:00:1001135XO",
"3122t07rr0000r442222r02:0t4425.O",
"uu0r::::22222252r00w700t1343wt%-",
"ssty243365996565ytwttyry6654ty%-",
"o.. *&%%%*.ooXooX %%..%%.X%%%%oO",
"X o %$$$$% XoXoo. %%  %%  %$$% X",
"dsrtwwiiiitytp%%gaiasf22fswriiss",
"uu0ww7uttiw00r%%sttteu22ut00uyte",
"32:,w07w-:2:45@@:-0770::00222107",
"552:wwww:2::35@@>-t70t:1rw3543r0",
"3>22333352wwwr$%tw8w::5522534323",
"6455559955twri&%ytry225555666666",
"ooo.** .*&$&.X+O.Xo *&&&&&.oXooX",
"@@@O--OO*-&-+@@@@@@+-&&***O@@@@@"
};
