/* XPM */
static char *result[] = {
/* columns rows colors chars-per-pixel */
"32 32 15 1 ",
"  c #180F07",
". c #1E1409",
"X c gray12",
"o c #21150A",
"O c #24180B",
"+ c #27190B",
"@ c #2B1D0D",
"# c #31200F",
"$ c #3A2715",
"% c #35271A",
"& c #442C15",
"* c #624700",
"= c #795800",
"- c gray26",
"; c #978800",
/* pixels */
"%%%%%%%%%%%%%%%oo%%%%%%%%%%%%%%%",
"%##@@@######@@@OO@@@######@@@##%",
"%#+    ##+    @OO@    +##    +#%",
"%@ OOO$@# OOO$@OO@$OOO #@$OOO @%",
"X@ O+O$@# O+O$@OO@$O+O #@$O+O @X",
"-# O++$@# O++$#OO#$++O #@$++O #-",
"%# +++$@# +++$@OO@$+++ #@$+++ #%",
"%# +@+&@@ +@+&#OO#&+@+ @@&+@+ #%",
"%# @@@&+@ @@@&#OO#&@@@ @+&@@@ #%",
"%# @@@&+@ @@@&@OO@&@@@ @+&@@@ #%",
"%@ @@#&#@ @@#&@OO@&#@@ @#&#@@ @%",
"%@ @##&#@ @##&@OO@&##@ @#&##@ @%",
"%@.###&#@.###&@OO@&###.@#&###.@%",
"%@.###&@@.###&#OO#&###.@@&###.@%",
"%@.$$&$@#.$$&$#OO#$&$$.#@$&$$.@%",
"X@@#@@####@;=*#OO#*=;@####@@#@@X",
"-@########@=@@#OO#@@=@########@-",
"%@+    @#+    #OO#    +#@    +@%",
"%@ OOO$@# OOO$#OO#$OOO #@$OOO @%",
"%@ O+O$@# O+O$#OO#$O+O #@$O+O @%",
"%@ O++$@# O++$@OO@$++O #@$++O @%",
"%# +++$@@ +++$@OO@$+++ @@$+++ #%",
"%# +@+&@@ +@+&@OO@&+@+ @@&+@+ #%",
"%@ @@@&@@ @@@&@OO@&@@@ @@&@@@ @%",
"%@ @@@&#@ @@@&#OO#&@@@ @#&@@@ @%",
"%@ @@#&#@ @@#&#OO#&#@@ @#&#@@ @%",
"X@ @##&## @##&@OO@&##@ ##&##@ @X",
"-@.###&##.###&@OO@&###.##&###.@-",
"%@.###&@#.###&@OO@&###.#@&###.@%",
"%#.$$&$@@.$$&$@OO@$&$$.@@$&$$.#%",
"%@@@@@@@##@#@@@OO@@@#@##@@@@@@@%",
"#..............OO..............#"
};
