/* XPM */
static char *result[] = {
/* columns rows colors chars-per-pixel */
"32 32 98 2 ",
"   c #070302",
".  c #0C0603",
"X  c #0E0903",
"o  c #130B06",
"O  c #180E07",
"+  c #160E08",
"@  c #1D1209",
"#  c #29170B",
"$  c #2D1A0C",
"%  c #331E0D",
"&  c #36200F",
"*  c #39210F",
"=  c #372211",
"-  c #3C2411",
";  c #3F2813",
":  c #161130",
">  c #181336",
",  c #2C2524",
"<  c #452B15",
"1  c #4A2E17",
"2  c #442C18",
"3  c #482E19",
"4  c #473115",
"5  c #4B3317",
"6  c #4D3318",
"7  c #52351A",
"8  c #543A1A",
"9  c #5B3D1C",
"0  c #613E1F",
"q  c #693823",
"w  c #5E401D",
"e  c #65401F",
"r  c #674121",
"t  c #6B4421",
"y  c #6F4A21",
"u  c #704623",
"i  c #734B23",
"p  c #7A4D26",
"a  c #775024",
"s  c #7A5325",
"d  c #1C1640",
"f  c #1F1849",
"g  c #20194A",
"h  c #251C53",
"j  c #291F5F",
"k  c #2A2164",
"l  c #01554D",
"z  c #01655A",
"x  c #006E65",
"c  c #007167",
"v  c #01746A",
"b  c #017C72",
"n  c #494441",
"m  c #4F4A47",
"M  c #544F4B",
"N  c #785A47",
"B  c #686059",
"V  c #7C7166",
"C  c #874D2E",
"Z  c #815627",
"A  c #835927",
"S  c #825728",
"D  c #835929",
"F  c #885B29",
"G  c #9C5E38",
"H  c #9F6039",
"J  c #825B42",
"K  c #987156",
"L  c #AE6F48",
"P  c #AD7047",
"I  c #AE7149",
"U  c #B2764E",
"Y  c #B47A52",
"T  c #01867B",
"R  c #01887E",
"E  c #C08757",
"W  c #C08758",
"Q  c #C48D5D",
"!  c #C6905F",
"~  c #CA9463",
"^  c #CF9967",
"/  c #CF9A68",
"(  c #D29E6D",
")  c #D5A273",
"_  c #D8A77B",
"`  c #0E7DCC",
"'  c #018E84",
"]  c #00958A",
"[  c #009B8F",
"{  c #009F93",
"}  c #02A498",
"|  c #0AAC9F",
" . c #0CAEA0",
".. c #D9AB83",
"X. c #DDB697",
"o. c #DEB798",
"O. c #C7BDAA",
"+. c white",
/* pixels */
"t t 2 6 6 6 8 8 8 8 7 X X o X X X X X 8 8 8 8 8 8 8 8 8 6 7 = - ",
"r t = ; 6 3 8 7 8 8 8 X X o o o o X X 4 8 8 8 8 4 4 6 6 1 7 $ % ",
"r r t i 1 1 3 7 % % % o o.o.X.o...) o i # & & # i r t u 6 8 3 3 ",
"y t r t < 1 2 3 $ % % o.o.o.o.o.X.( / y # & $ # i r r r 4 6 3 5 ",
"2 - u 0 r r t u 8 7 i _ +.` _ o.` +.W 7 0 0 e e < < y e e u $ & ",
"7 1 p i t u u i 8 8 i Y ) X.q , X.E I 9 9 e e e 7 7 i e u p & * ",
"+ o .   % $ $ % . X % H P q q q q H H % % & . X o . % $ $ % o O ",
"+ o .   * % # %     % q q C C q G J C # # %   . o . * % & *   X ",
"9 8 F F 8 5 A [ |  .{ T v q C q C c b {  . .{ p 8 0 9 8 7 1 p i ",
"8 5 p p < < s { } } [ c T T C C T ' T } } } [ t < 5 5 7 < < u e ",
"8 5 i y a a 0 ' ] ' [ b [ ' T b ' ' b ' ' ] { < y e u 0 0 y 5 5 ",
"8 5 s a i p 0 x c c b x T ' [ ' ' ' z x x c b 2 y 0 e u u y 7 7 ",
"3 < - ; 6 1 5 U U U I z b } [ T ' T z K K Y L 7 5 5 < 1 < 1 < < ",
"7 6 3 2 w 9 8 W Q ! E l b } } [ [ ' b W ! Q W 8 7 9 7 7 7 9 1 1 ",
"+ X - - .   - ^ ( ( ( l ' [ ' [ } ] b ~ ( ( ( % % % . o o o o o ",
"o   % %     % ( ( ^ ( z R [ ' }  .[ b ( ( ^ ( $ % % . . . . O O ",
"i i s s Z A u ^ ) ~ ( v T ' T [ } ] R / ( ~ ( s s s A A i Z % % ",
"t e s i y p 0 ( ) ( ..l z x v b [ } b ( ) ( _ a i i i a 0 i % < ",
"7 6 5 1 e 0 e ) _ ( ( : > > g g g ' T ) _ ) ( 2 e e 4 5 6 8 . O ",
"5 5 5 5 i e e ( ( ( ~ : g g h h h g l ( ^ ) ! 5 u y 6 7 6 8 . O ",
"a s e u < < 1 < 6 6 6 k k k h h k k h t r e r u 4 5 7 7 y u % < ",
"s A u s 4 7 6 6 8 8 w h k k g h k k h t i i t p 9 9 8 7 u p % % ",
"X . X   * & % & % & X f k k h g k k h %     % % X . * % % % O O ",
"o . . . & $ # $ # % . g j k g g h k h %     - %     % # # %   . ",
"S D i i t t s s s s i g h h g g g h g s A A 7 6 F A t t s s A S ",
"a p r r r 0 i i i s r > > g g > d g > i e a 5 5 a i r e s i i i ",
"5 4 3 < t e e t - < 5 g g g g g g h d e e e < 4 e r 5 5 5 4 e 0 ",
"8 8 5 2 u e t t < 5 4 > g g g > h g g e y i < < y t 6 7 7 6 u e ",
"7 1 1 5 6 6 5 5 7 7 e g d g g d d g g t < < 7 8 5 4 7 7 7 7 5 5 ",
"8 7 7 7 8 9 w w 8 8 i > d f f d d f d p 4 6 8 8 8 8 w 9 9 9 8 w ",
"+ o o X * *   X * & $ M O.O.V M O.O.V   - & % & & & X X o X X o ",
"# @ @ O ; * O O * = = M m n B M M n N + - & & * * - O @ @ @ @ @ "
};
